<svg width="24" height="24" viewBox="0 0 24 24" fill="none" xmlns="http://www.w3.org/2000/svg">
<path d="M14.1449 16.5C14.5752 15.0543 15.9145 14 17.5 14C19.0855 14 20.4248 15.0543 20.8551 16.5H22V14C22 13.6852 21.8518 13.3889 21.6 13.2L20 12H14C12.3431 12 11 10.6569 11 9V6H9.16228C8.30142 6 7.53714 6.55086 7.26491 7.36754L6.58114 9.41886C6.06733 10.9603 4.62481 12 3 12C2.44772 12 2 12.4477 2 13V16.5H3.64494C4.07521 15.0543 5.41449 14 7 14C8.58551 14 9.92479 15.0543 10.3551 16.5H14.1449ZM14.1449 18.5H10.3551C9.92479 19.9457 8.58551 21 7 21C5.41449 21 4.07521 19.9457 3.64494 18.5H2C0.89543 18.5 0 17.6046 0 16.5L0 13C0 11.3431 1.34315 10 3 10C3.76395 10 4.44219 9.51115 4.68377 8.78641L5.36754 6.73509C5.912 5.10172 7.44056 4 9.16228 4H14.9689C16.6045 4 18.0754 4.9958 18.6828 6.51444L19.616 8.84753C19.7523 9.18811 19.9795 9.48466 20.273 9.70475L22.8 11.6C23.5554 12.1666 24 13.0557 24 14V16.5C24 17.6046 23.1046 18.5 22 18.5H20.8551C20.4248 19.9457 19.0855 21 17.5 21C15.9145 21 14.5752 19.9457 14.1449 18.5ZM13 6V9C13 9.55228 13.4477 10 14 10H17.9505C17.8792 9.86756 17.8153 9.73081 17.7591 9.59031L16.8259 7.25722C16.5221 6.4979 15.7867 6 14.9689 6H13ZM17.5 19C18.3284 19 19 18.3284 19 17.5C19 16.6716 18.3284 16 17.5 16C16.6716 16 16 16.6716 16 17.5C16 18.3284 16.6716 19 17.5 19ZM7 19C7.82843 19 8.5 18.3284 8.5 17.5C8.5 16.6716 7.82843 16 7 16C6.17157 16 5.5 16.6716 5.5 17.5C5.5 18.3284 6.17157 19 7 19Z" fill="#1B1B1E"/>
</svg>
